<?xml version="1.0" encoding="UTF-8"?>
<svg id="Layer_1" data-name="Layer 1" xmlns="http://www.w3.org/2000/svg" viewBox="0 0 19.92 19.92">
  <path d="m9.96,19.38c2.71,0,4.93-4.01,4.93-9.39S12.69.56,9.96.56s-4.93,4.01-4.93,9.42,2.22,9.39,4.93,9.39Zm0-17.64c1.91,0,3.62,3.81,3.62,8.24s-1.71,8.2-3.62,8.2-3.62-3.85-3.62-8.2S8.05,1.74,9.96,1.74Zm-.63-1.04v18.5h1.28V.69h-1.28Zm.63,12.94c-3.01,0-5.67.79-7.04,2.05l.99.81c1.29-1.03,3.39-1.58,6.05-1.58s4.77.56,6.05,1.58l.99-.81c-1.37-1.26-4.03-2.05-7.04-2.05Zm9.01-4.32H.95v1.28h18.03v-1.28Zm-9.01-2.98c3.01,0,5.67-.79,7.04-2.05l-.99-.81c-1.29,1.02-3.39,1.58-6.05,1.58s-4.77-.57-6.05-1.58l-.99.81c1.37,1.26,4.03,2.05,7.04,2.05Zm0,13.58c5.45,0,9.96-4.52,9.96-9.96S15.4,0,9.95,0,0,4.51,0,9.96s4.52,9.96,9.96,9.96Zm0-1.33c-4.72,0-8.63-3.92-8.63-8.63S5.23,1.33,9.95,1.33s8.64,3.92,8.64,8.63-3.92,8.63-8.63,8.63Z" style="fill: #02577a;"/>
</svg>