<?xml version="1.0" encoding="UTF-8"?>
<svg id="Layer_1" data-name="Layer 1" xmlns="http://www.w3.org/2000/svg" viewBox="0 0 21.56 16.83">
  <path d="m3.07,16.83h15.72c1.76,0,2.77-1.02,2.77-3.03V3.02c0-2-1.03-3.02-3.07-3.02H2.77C1.02,0,0,1.01,0,3.02v10.78c0,2.02,1.03,3.03,3.07,3.03Zm-.06-1.49c-.98,0-1.51-.52-1.51-1.53V3.02c0-1.01.54-1.52,1.51-1.52h15.55c.96,0,1.51.52,1.51,1.53v10.78c0,1.01-.56,1.52-1.51,1.52H3.01Zm7.79-4.32c.68,0,1.35-.28,2.03-.96l7.93-7.79-1.02-1.03-7.76,7.67c-.42.42-.8.61-1.18.61s-.77-.2-1.18-.61L1.82,1.2l-1.03,1.03,7.98,7.83c.68.67,1.34.96,2.03.96Zm8.85,4.53l1.02-1.03-6.32-6.24-1.02,1.02,6.32,6.25ZM.93,14.53l1.02,1.03,6.33-6.26-1.03-1.02L.93,14.53Z" style="fill: #02577a;"/>
</svg>