<?xml version="1.0" encoding="UTF-8"?>
<svg id="Layer_1" data-name="Layer 1" xmlns="http://www.w3.org/2000/svg" viewBox="0 0 19.1 19.1">
  <path d="m14.2,19.1c1.71,0,2.83-.46,3.82-1.57.08-.08.16-.17.22-.24.59-.65.86-1.3.86-1.91,0-.7-.41-1.36-1.28-1.96l-2.84-1.97c-.88-.61-1.9-.67-2.72.14l-.75.75c-.22.22-.42.23-.63.1-.53-.33-1.59-1.26-2.31-1.98-.76-.75-1.49-1.59-1.88-2.21-.13-.22-.12-.41.11-.63l.74-.75c.82-.82.75-1.86.15-2.72l-1.97-2.84C5.09.41,4.43.01,3.73,0c-.62,0-1.26.27-1.91.86-.09.08-.17.15-.24.21C.46,2.07,0,3.19,0,4.88c0,2.79,1.72,6.19,4.87,9.35,3.13,3.13,6.54,4.87,9.33,4.87Zm0-1.5c-2.49.05-5.68-1.87-8.21-4.38C3.45,10.67,1.45,7.37,1.49,4.88c.02-1.07.4-2,1.16-2.67.07-.06.12-.11.19-.16.29-.25.61-.39.89-.39s.54.11.72.4l1.89,2.84c.21.3.22.64-.08.95l-.86.86c-.67.67-.62,1.49-.14,2.15.56.75,1.52,1.85,2.28,2.59.74.75,1.92,1.81,2.69,2.37.65.49,1.47.54,2.15-.14l.86-.86c.3-.3.63-.28.95-.09l2.84,1.89c.29.2.4.44.4.73s-.14.6-.39.89c-.06.07-.1.12-.16.19-.66.76-1.59,1.13-2.68,1.15Z" style="fill: #02577a;"/>
</svg>